<mxfile host="Electron" agent="Mozilla/5.0 (Windows NT 10.0; Win64; x64) AppleWebKit/537.36 (KHTML, like Gecko) draw.io/26.2.2 Chrome/134.0.6998.178 Electron/35.1.2 Safari/537.36" version="26.2.2">
  <diagram name="Page-1" id="SvvumNpIVBLlvO28q4bc">
    <mxGraphModel dx="874" dy="529" grid="1" gridSize="10" guides="1" tooltips="1" connect="1" arrows="1" fold="1" page="1" pageScale="1" pageWidth="850" pageHeight="1100" math="0" shadow="0">
      <root>
        <mxCell id="0" />
        <mxCell id="1" parent="0" />
        <mxCell id="78FRwA7VbzMATGk7zEdB-1" value="" style="rounded=0;whiteSpace=wrap;html=1;fillColor=none;dashed=1;strokeColor=#111111;" parent="1" vertex="1">
          <mxGeometry x="47.1" y="130" width="110" height="340" as="geometry" />
        </mxCell>
        <mxCell id="78FRwA7VbzMATGk7zEdB-3" value="Sources" style="rounded=0;whiteSpace=wrap;html=1;strokeColor=none;" parent="1" vertex="1">
          <mxGeometry x="60" y="130" width="70" height="30" as="geometry" />
        </mxCell>
        <mxCell id="78FRwA7VbzMATGk7zEdB-18" value="" style="edgeStyle=orthogonalEdgeStyle;rounded=0;orthogonalLoop=1;jettySize=auto;html=1;" parent="1" source="78FRwA7VbzMATGk7zEdB-4" target="78FRwA7VbzMATGk7zEdB-13" edge="1">
          <mxGeometry relative="1" as="geometry">
            <Array as="points">
              <mxPoint x="220" y="233" />
              <mxPoint x="220" y="233" />
            </Array>
          </mxGeometry>
        </mxCell>
        <mxCell id="78FRwA7VbzMATGk7zEdB-19" style="edgeStyle=orthogonalEdgeStyle;rounded=0;orthogonalLoop=1;jettySize=auto;html=1;entryX=0;entryY=0.5;entryDx=0;entryDy=0;" parent="1" source="78FRwA7VbzMATGk7zEdB-4" target="78FRwA7VbzMATGk7zEdB-9" edge="1">
          <mxGeometry relative="1" as="geometry" />
        </mxCell>
        <mxCell id="78FRwA7VbzMATGk7zEdB-21" style="edgeStyle=orthogonalEdgeStyle;rounded=0;orthogonalLoop=1;jettySize=auto;html=1;entryX=0;entryY=0.5;entryDx=0;entryDy=0;" parent="1" source="78FRwA7VbzMATGk7zEdB-4" target="78FRwA7VbzMATGk7zEdB-8" edge="1">
          <mxGeometry relative="1" as="geometry" />
        </mxCell>
        <mxCell id="78FRwA7VbzMATGk7zEdB-4" value="CRM" style="image;aspect=fixed;html=1;points=[];align=center;fontSize=12;image=img/lib/azure2/general/Folder_Blank.svg;" parent="1" vertex="1">
          <mxGeometry x="67.1" y="210" width="55.8" height="45.28" as="geometry" />
        </mxCell>
        <mxCell id="78FRwA7VbzMATGk7zEdB-22" value="" style="edgeStyle=orthogonalEdgeStyle;rounded=0;orthogonalLoop=1;jettySize=auto;html=1;" parent="1" source="78FRwA7VbzMATGk7zEdB-5" target="78FRwA7VbzMATGk7zEdB-11" edge="1">
          <mxGeometry relative="1" as="geometry" />
        </mxCell>
        <mxCell id="78FRwA7VbzMATGk7zEdB-23" style="edgeStyle=orthogonalEdgeStyle;rounded=0;orthogonalLoop=1;jettySize=auto;html=1;entryX=0;entryY=0.5;entryDx=0;entryDy=0;" parent="1" source="78FRwA7VbzMATGk7zEdB-5" target="78FRwA7VbzMATGk7zEdB-10" edge="1">
          <mxGeometry relative="1" as="geometry" />
        </mxCell>
        <mxCell id="78FRwA7VbzMATGk7zEdB-24" style="edgeStyle=orthogonalEdgeStyle;rounded=0;orthogonalLoop=1;jettySize=auto;html=1;entryX=0;entryY=0.75;entryDx=0;entryDy=0;" parent="1" source="78FRwA7VbzMATGk7zEdB-5" target="78FRwA7VbzMATGk7zEdB-12" edge="1">
          <mxGeometry relative="1" as="geometry" />
        </mxCell>
        <mxCell id="78FRwA7VbzMATGk7zEdB-5" value="ERP" style="image;aspect=fixed;html=1;points=[];align=center;fontSize=12;image=img/lib/azure2/general/Folder_Blank.svg;" parent="1" vertex="1">
          <mxGeometry x="74.2" y="354.72" width="55.8" height="45.28" as="geometry" />
        </mxCell>
        <mxCell id="78FRwA7VbzMATGk7zEdB-6" value="" style="rounded=1;whiteSpace=wrap;html=1;fillColor=#ffe6cc;strokeColor=#d79b00;fillStyle=hatch;" parent="1" vertex="1">
          <mxGeometry x="230" y="160" width="120" height="310" as="geometry" />
        </mxCell>
        <mxCell id="78FRwA7VbzMATGk7zEdB-7" value="Bronze Layer" style="rounded=1;whiteSpace=wrap;html=1;fillColor=#ffe6cc;strokeColor=#d79b00;fontStyle=1" parent="1" vertex="1">
          <mxGeometry x="237.5" y="120" width="105" height="30" as="geometry" />
        </mxCell>
        <mxCell id="78FRwA7VbzMATGk7zEdB-8" value="&lt;span style=&quot;font-weight: normal;&quot;&gt;&lt;font style=&quot;font-size: 10px;&quot;&gt;crm_sales_details&lt;/font&gt;&lt;/span&gt;" style="rounded=1;whiteSpace=wrap;html=1;fillColor=#ffe6cc;strokeColor=#d79b00;fontStyle=1" parent="1" vertex="1">
          <mxGeometry x="237.5" y="180" width="105" height="30" as="geometry" />
        </mxCell>
        <mxCell id="z3z4q4n6mW2OJvLqrMkL-11" style="edgeStyle=orthogonalEdgeStyle;rounded=0;orthogonalLoop=1;jettySize=auto;html=1;exitX=1;exitY=0.5;exitDx=0;exitDy=0;entryX=0;entryY=0.5;entryDx=0;entryDy=0;" parent="1" source="78FRwA7VbzMATGk7zEdB-9" target="z3z4q4n6mW2OJvLqrMkL-4" edge="1">
          <mxGeometry relative="1" as="geometry" />
        </mxCell>
        <mxCell id="78FRwA7VbzMATGk7zEdB-9" value="&lt;span style=&quot;font-weight: normal;&quot;&gt;&lt;font style=&quot;font-size: 10px;&quot;&gt;crm_prd_info&lt;/font&gt;&lt;/span&gt;" style="rounded=1;whiteSpace=wrap;html=1;fillColor=#ffe6cc;strokeColor=#d79b00;fontStyle=1" parent="1" vertex="1">
          <mxGeometry x="237.5" y="260" width="105" height="30" as="geometry" />
        </mxCell>
        <mxCell id="z3z4q4n6mW2OJvLqrMkL-12" style="edgeStyle=orthogonalEdgeStyle;rounded=0;orthogonalLoop=1;jettySize=auto;html=1;" parent="1" source="78FRwA7VbzMATGk7zEdB-10" target="z3z4q4n6mW2OJvLqrMkL-5" edge="1">
          <mxGeometry relative="1" as="geometry" />
        </mxCell>
        <mxCell id="78FRwA7VbzMATGk7zEdB-10" value="&lt;span style=&quot;font-weight: normal;&quot;&gt;&lt;font style=&quot;font-size: 10px;&quot;&gt;erp_cust_az12&lt;/font&gt;&lt;/span&gt;" style="rounded=1;whiteSpace=wrap;html=1;fillColor=#ffe6cc;strokeColor=#d79b00;fontStyle=1" parent="1" vertex="1">
          <mxGeometry x="237.5" y="335.28" width="105" height="30" as="geometry" />
        </mxCell>
        <mxCell id="z3z4q4n6mW2OJvLqrMkL-13" style="edgeStyle=orthogonalEdgeStyle;rounded=0;orthogonalLoop=1;jettySize=auto;html=1;" parent="1" source="78FRwA7VbzMATGk7zEdB-11" target="z3z4q4n6mW2OJvLqrMkL-6" edge="1">
          <mxGeometry relative="1" as="geometry" />
        </mxCell>
        <mxCell id="78FRwA7VbzMATGk7zEdB-11" value="&lt;span style=&quot;font-weight: normal;&quot;&gt;&lt;font style=&quot;font-size: 10px;&quot;&gt;erp_loc_a101&lt;/font&gt;&lt;/span&gt;" style="rounded=1;whiteSpace=wrap;html=1;fillColor=#ffe6cc;strokeColor=#d79b00;fontStyle=1" parent="1" vertex="1">
          <mxGeometry x="237.5" y="380" width="105" height="30" as="geometry" />
        </mxCell>
        <mxCell id="z3z4q4n6mW2OJvLqrMkL-14" style="edgeStyle=orthogonalEdgeStyle;rounded=0;orthogonalLoop=1;jettySize=auto;html=1;entryX=0;entryY=0.5;entryDx=0;entryDy=0;" parent="1" source="78FRwA7VbzMATGk7zEdB-12" target="z3z4q4n6mW2OJvLqrMkL-7" edge="1">
          <mxGeometry relative="1" as="geometry" />
        </mxCell>
        <mxCell id="78FRwA7VbzMATGk7zEdB-12" value="&lt;span style=&quot;font-weight: normal;&quot;&gt;&lt;font style=&quot;font-size: 10px;&quot;&gt;erp_px_cat_g1v2&lt;/font&gt;&lt;/span&gt;" style="rounded=1;whiteSpace=wrap;html=1;fillColor=#ffe6cc;strokeColor=#d79b00;fontStyle=1" parent="1" vertex="1">
          <mxGeometry x="237.5" y="420" width="105" height="30" as="geometry" />
        </mxCell>
        <mxCell id="z3z4q4n6mW2OJvLqrMkL-10" style="edgeStyle=orthogonalEdgeStyle;rounded=0;orthogonalLoop=1;jettySize=auto;html=1;entryX=0;entryY=0.5;entryDx=0;entryDy=0;" parent="1" source="78FRwA7VbzMATGk7zEdB-13" target="z3z4q4n6mW2OJvLqrMkL-8" edge="1">
          <mxGeometry relative="1" as="geometry" />
        </mxCell>
        <mxCell id="78FRwA7VbzMATGk7zEdB-13" value="&lt;span style=&quot;font-weight: normal;&quot;&gt;&lt;font style=&quot;font-size: 10px;&quot;&gt;crm_cust_info&lt;/font&gt;&lt;/span&gt;" style="rounded=1;whiteSpace=wrap;html=1;fillColor=#ffe6cc;strokeColor=#d79b00;fontStyle=1" parent="1" vertex="1">
          <mxGeometry x="237.5" y="219.99999999999997" width="105" height="30" as="geometry" />
        </mxCell>
        <mxCell id="z3z4q4n6mW2OJvLqrMkL-1" value="" style="rounded=1;whiteSpace=wrap;html=1;fillColor=#e1d5e7;strokeColor=#9673a6;fillStyle=hatch;" parent="1" vertex="1">
          <mxGeometry x="400" y="160" width="120" height="310" as="geometry" />
        </mxCell>
        <mxCell id="z3z4q4n6mW2OJvLqrMkL-2" value="Silver Layer" style="rounded=1;whiteSpace=wrap;html=1;fillColor=#e1d5e7;strokeColor=#9673a6;fontStyle=1" parent="1" vertex="1">
          <mxGeometry x="407.5" y="120" width="105" height="30" as="geometry" />
        </mxCell>
        <mxCell id="z3z4q4n6mW2OJvLqrMkL-3" value="&lt;span style=&quot;font-weight: normal;&quot;&gt;&lt;font style=&quot;font-size: 10px;&quot;&gt;crm_sales_details&lt;/font&gt;&lt;/span&gt;" style="rounded=1;whiteSpace=wrap;html=1;fillColor=#e1d5e7;strokeColor=#9673a6;fontStyle=1" parent="1" vertex="1">
          <mxGeometry x="407.5" y="180" width="105" height="30" as="geometry" />
        </mxCell>
        <mxCell id="z3z4q4n6mW2OJvLqrMkL-4" value="&lt;span style=&quot;font-weight: normal;&quot;&gt;&lt;font style=&quot;font-size: 10px;&quot;&gt;crm_prd_info&lt;/font&gt;&lt;/span&gt;" style="rounded=1;whiteSpace=wrap;html=1;fillColor=#e1d5e7;strokeColor=#9673a6;fontStyle=1" parent="1" vertex="1">
          <mxGeometry x="407.5" y="260" width="105" height="30" as="geometry" />
        </mxCell>
        <mxCell id="z3z4q4n6mW2OJvLqrMkL-5" value="&lt;span style=&quot;font-size: 10px; font-weight: 400;&quot;&gt;erp_cust_az12&lt;/span&gt;" style="rounded=1;whiteSpace=wrap;html=1;fillColor=#e1d5e7;strokeColor=#9673a6;fontStyle=1" parent="1" vertex="1">
          <mxGeometry x="407.5" y="335.28" width="105" height="30" as="geometry" />
        </mxCell>
        <mxCell id="z3z4q4n6mW2OJvLqrMkL-6" value="&lt;span style=&quot;font-size: 10px; font-weight: 400;&quot;&gt;erp_loc_a101&lt;/span&gt;" style="rounded=1;whiteSpace=wrap;html=1;fillColor=#e1d5e7;strokeColor=#9673a6;fontStyle=1" parent="1" vertex="1">
          <mxGeometry x="407.5" y="380" width="105" height="30" as="geometry" />
        </mxCell>
        <mxCell id="z3z4q4n6mW2OJvLqrMkL-7" value="&lt;span style=&quot;font-size: 10px; font-weight: 400;&quot;&gt;erp_px_cat_g1v2&lt;/span&gt;" style="rounded=1;whiteSpace=wrap;html=1;fillColor=#e1d5e7;strokeColor=#9673a6;fontStyle=1" parent="1" vertex="1">
          <mxGeometry x="407.5" y="420" width="105" height="30" as="geometry" />
        </mxCell>
        <mxCell id="z3z4q4n6mW2OJvLqrMkL-8" value="&lt;span style=&quot;font-weight: normal;&quot;&gt;&lt;font style=&quot;font-size: 10px;&quot;&gt;crm_cust_info&lt;/font&gt;&lt;/span&gt;" style="rounded=1;whiteSpace=wrap;html=1;fillColor=#e1d5e7;strokeColor=#9673a6;fontStyle=1" parent="1" vertex="1">
          <mxGeometry x="407.5" y="219.99999999999997" width="105" height="30" as="geometry" />
        </mxCell>
        <mxCell id="z3z4q4n6mW2OJvLqrMkL-9" style="edgeStyle=orthogonalEdgeStyle;rounded=0;orthogonalLoop=1;jettySize=auto;html=1;entryX=0;entryY=0.11;entryDx=0;entryDy=0;entryPerimeter=0;" parent="1" source="78FRwA7VbzMATGk7zEdB-8" target="z3z4q4n6mW2OJvLqrMkL-1" edge="1">
          <mxGeometry relative="1" as="geometry" />
        </mxCell>
        <mxCell id="-IVd0tafPQTZsjOT5mXh-1" value="" style="rounded=1;whiteSpace=wrap;html=1;fillColor=#fff2cc;strokeColor=#d6b656;fillStyle=hatch;" vertex="1" parent="1">
          <mxGeometry x="580" y="160" width="120" height="310" as="geometry" />
        </mxCell>
        <mxCell id="-IVd0tafPQTZsjOT5mXh-2" value="Gold Layer" style="rounded=1;whiteSpace=wrap;html=1;fillColor=#fff2cc;strokeColor=#d6b656;fontStyle=1" vertex="1" parent="1">
          <mxGeometry x="587.5" y="120" width="105" height="30" as="geometry" />
        </mxCell>
        <mxCell id="-IVd0tafPQTZsjOT5mXh-3" value="&lt;span style=&quot;font-weight: normal;&quot;&gt;&lt;font style=&quot;font-size: 10px;&quot;&gt;facts_sales&lt;/font&gt;&lt;/span&gt;" style="rounded=1;whiteSpace=wrap;html=1;fillColor=#fff2cc;strokeColor=#d6b656;fontStyle=1" vertex="1" parent="1">
          <mxGeometry x="587.5" y="200" width="105" height="30" as="geometry" />
        </mxCell>
        <mxCell id="-IVd0tafPQTZsjOT5mXh-4" value="&lt;span style=&quot;font-weight: normal;&quot;&gt;&lt;font style=&quot;font-size: 10px;&quot;&gt;dim_products&lt;/font&gt;&lt;/span&gt;" style="rounded=1;whiteSpace=wrap;html=1;fillColor=#fff2cc;strokeColor=#d6b656;fontStyle=1" vertex="1" parent="1">
          <mxGeometry x="587.5" y="380" width="105" height="30" as="geometry" />
        </mxCell>
        <mxCell id="-IVd0tafPQTZsjOT5mXh-8" value="&lt;span style=&quot;font-weight: normal;&quot;&gt;&lt;font style=&quot;font-size: 10px;&quot;&gt;dim_customers&lt;/font&gt;&lt;/span&gt;" style="rounded=1;whiteSpace=wrap;html=1;fillColor=#fff2cc;strokeColor=#d6b656;fontStyle=1" vertex="1" parent="1">
          <mxGeometry x="587.5" y="285" width="105" height="30" as="geometry" />
        </mxCell>
        <mxCell id="-IVd0tafPQTZsjOT5mXh-9" value="" style="endArrow=classic;html=1;rounded=0;" edge="1" parent="1" source="z3z4q4n6mW2OJvLqrMkL-3" target="-IVd0tafPQTZsjOT5mXh-3">
          <mxGeometry width="50" height="50" relative="1" as="geometry">
            <mxPoint x="560" y="300" as="sourcePoint" />
            <mxPoint x="610" y="250" as="targetPoint" />
            <Array as="points">
              <mxPoint x="550" y="210" />
            </Array>
          </mxGeometry>
        </mxCell>
        <mxCell id="-IVd0tafPQTZsjOT5mXh-10" value="" style="endArrow=classic;html=1;rounded=0;jumpStyle=gap;" edge="1" parent="1" source="z3z4q4n6mW2OJvLqrMkL-8">
          <mxGeometry width="50" height="50" relative="1" as="geometry">
            <mxPoint x="560" y="300" as="sourcePoint" />
            <mxPoint x="590" y="300" as="targetPoint" />
          </mxGeometry>
        </mxCell>
        <mxCell id="-IVd0tafPQTZsjOT5mXh-11" value="" style="endArrow=classic;html=1;rounded=0;entryX=0;entryY=0.5;entryDx=0;entryDy=0;jumpStyle=gap;" edge="1" parent="1" source="z3z4q4n6mW2OJvLqrMkL-5" target="-IVd0tafPQTZsjOT5mXh-8">
          <mxGeometry width="50" height="50" relative="1" as="geometry">
            <mxPoint x="610" y="300" as="sourcePoint" />
            <mxPoint x="660" y="250" as="targetPoint" />
          </mxGeometry>
        </mxCell>
        <mxCell id="-IVd0tafPQTZsjOT5mXh-12" value="" style="endArrow=classic;html=1;rounded=0;exitX=1;exitY=0.5;exitDx=0;exitDy=0;entryX=0;entryY=0.5;entryDx=0;entryDy=0;jumpStyle=gap;" edge="1" parent="1" source="z3z4q4n6mW2OJvLqrMkL-6" target="-IVd0tafPQTZsjOT5mXh-8">
          <mxGeometry width="50" height="50" relative="1" as="geometry">
            <mxPoint x="610" y="300" as="sourcePoint" />
            <mxPoint x="660" y="250" as="targetPoint" />
          </mxGeometry>
        </mxCell>
        <mxCell id="-IVd0tafPQTZsjOT5mXh-13" value="" style="endArrow=classic;html=1;rounded=0;exitX=1;exitY=0.75;exitDx=0;exitDy=0;entryX=0;entryY=0.5;entryDx=0;entryDy=0;jumpStyle=gap;" edge="1" parent="1" source="z3z4q4n6mW2OJvLqrMkL-4" target="-IVd0tafPQTZsjOT5mXh-4">
          <mxGeometry width="50" height="50" relative="1" as="geometry">
            <mxPoint x="610" y="300" as="sourcePoint" />
            <mxPoint x="660" y="250" as="targetPoint" />
          </mxGeometry>
        </mxCell>
        <mxCell id="-IVd0tafPQTZsjOT5mXh-14" value="" style="endArrow=classic;html=1;rounded=0;exitX=1;exitY=0.25;exitDx=0;exitDy=0;entryX=0;entryY=0.75;entryDx=0;entryDy=0;jumpStyle=gap;" edge="1" parent="1" source="z3z4q4n6mW2OJvLqrMkL-7" target="-IVd0tafPQTZsjOT5mXh-4">
          <mxGeometry width="50" height="50" relative="1" as="geometry">
            <mxPoint x="610" y="300" as="sourcePoint" />
            <mxPoint x="660" y="250" as="targetPoint" />
          </mxGeometry>
        </mxCell>
      </root>
    </mxGraphModel>
  </diagram>
</mxfile>
